<svg width="819" height="624" viewBox="0 0 819 624" fill="none" xmlns="http://www.w3.org/2000/svg">
<mask id="path-1-outside-1_919_9193" maskUnits="userSpaceOnUse" x="0" y="-0.276367" width="819" height="624" fill="black">
<rect fill="white" y="-0.276367" width="819" height="624"/>
<path fill-rule="evenodd" clip-rule="evenodd" d="M491.97 434.779C492.544 443.049 491.964 452.595 491.36 462.548C489.549 492.36 487.517 525.822 515.586 539.565C539.409 543.712 564.238 562.245 589.049 580.766C629.215 610.747 669.335 640.695 705.068 609.52C708.392 606.62 710.733 602.723 711.798 598.443C717.117 577.073 716.08 548.655 715.073 521.019C713.288 472.086 711.594 425.603 745.421 425.028L745.455 424.959C806.199 423.639 809.016 405.14 814.527 368.954C815.221 364.394 815.958 359.554 816.859 354.432C821.258 329.427 812.042 317.504 804.408 307.627C798.068 299.425 792.819 292.634 797.367 280.933C804.175 263.474 791.318 229.905 741.723 230.319C692.127 230.734 666.655 172.723 687.357 151.496C732.598 114.331 673.187 77.7538 639.04 60.1567C630.419 55.5397 621.409 57.9031 612.323 60.2863C604.944 62.2216 597.516 64.1701 590.205 62.4039C566.784 57.0467 557.7 36.803 550.793 21.4114C545.398 9.38874 541.331 0.326466 532.798 3.6317C508.843 12.91 499.503 8.46043 491.202 4.50628C486.018 2.03662 481.24 -0.239766 473.56 1.14253C458.099 11.471 444.186 8.11756 432.254 5.24147C421.221 2.58203 411.881 0.330698 404.575 9.68178C397.37 38.3845 388.154 34.4283 378.915 30.462C370.516 26.8562 362.097 23.2421 355.152 44.1499C351.972 53.6918 345.406 61.8507 336.489 66.4834C322.111 73.9855 307.077 78.0304 291.732 76.8204C281.805 76.036 276.598 69.7904 271.554 63.7407C266.148 57.2572 260.93 50.9986 250.292 51.9286C248.243 51.765 242.804 54.2633 236.075 57.3538C221.47 64.0622 200.789 73.5611 195.512 64.6856C190.846 50.926 184.453 35.6107 175.501 27.832C131.374 41.6472 91.6025 65.0078 51.846 88.3593C36.6608 97.2785 21.4779 106.196 6.05534 114.581C4.86707 115.227 3.67737 115.869 2.48615 116.509C3.05848 117.24 3.412 117.876 3.49984 118.399C3.60119 119.001 3.34876 119.452 2.67054 119.721C2.2684 119.88 1.71655 119.976 1 120.001C1.22479 121.344 1.45147 122.672 1.68002 123.984C22.6115 244.189 59.2237 235.478 92.4387 227.575C116.073 221.951 137.987 216.737 151.308 258.668C160.132 310.443 182.641 313.243 203.796 315.875C221.586 318.088 238.419 320.182 245.35 351.183C247.424 360.483 255.995 366.394 265.499 365.703C299.473 363.283 332.065 422.366 319.968 464.475C311.673 493.273 374.783 494.691 381.246 494.103C411.657 492.456 448.197 463.845 476.126 441.977C480.213 438.777 484.115 435.722 487.786 432.917C489.051 431.95 490.289 431.013 491.497 430.11C491.704 431.614 491.859 433.173 491.97 434.779ZM5.52878 122.682C14.3005 173.368 25.7404 200.333 37.9213 214.143C44.0498 221.091 50.3481 224.687 56.6676 226.362C63.0593 228.056 69.7473 227.859 76.7447 226.774C81.6421 226.015 86.4322 224.875 91.3262 223.71C93.5433 223.183 95.7818 222.65 98.0612 222.145C105.16 220.573 112.501 219.321 119.579 219.984C126.814 220.661 133.723 223.331 139.867 229.403C145.913 235.377 150.994 244.419 155.134 257.452L155.219 257.718L155.266 257.993C159.254 281.393 165.973 293.862 173.461 300.856C180.909 307.812 189.679 309.902 199.285 311.242C200.836 311.458 202.431 311.655 204.054 311.854C212.115 312.847 220.875 313.926 228.429 317.957C238.001 323.066 245.298 332.551 249.268 350.306L249.268 350.308C250.877 357.521 257.538 362.256 265.208 361.698L265.214 361.697C274.955 361.003 284.308 364.74 292.485 371.005C300.663 377.271 307.879 386.213 313.526 396.451C324.769 416.836 330.246 443.239 323.827 465.584L323.826 465.587C322.988 468.498 323.106 470.826 323.758 472.754C324.42 474.713 325.736 476.556 327.753 478.291C331.886 481.848 338.464 484.52 346.045 486.412C361.144 490.181 378.086 490.358 380.882 490.103L380.956 490.097L381.029 490.093C398.048 489.171 417.649 479.108 437.021 466.073C449.95 457.373 462.323 447.684 473.475 438.951C479.009 434.617 484.243 430.518 489.094 426.893L494.547 422.819L495.474 429.563C496.65 438.117 496.226 448.191 495.629 458.424C495.543 459.884 495.455 461.349 495.366 462.817C494.821 471.79 494.269 480.886 494.504 489.683C495.046 510.039 499.754 527.062 516.859 535.713C533.614 538.783 550.511 548.441 567.025 559.795C575.17 565.394 583.338 571.492 591.43 577.532L592.175 578.088C600.536 584.328 608.814 590.492 617.035 596.083C633.567 607.328 649.374 615.905 664.385 618.139C676.97 620.012 689.228 617.461 701.199 607.54C704.787 604.567 707.232 600.447 708.278 595.906C711.11 583.608 711.919 568.806 711.87 552.878C711.841 543.224 711.5 533.269 711.139 523.322L711.06 521.148C710.725 511.951 710.39 502.778 710.296 493.977C710.096 475.123 710.976 457.365 715.632 444.173C717.983 437.513 721.387 431.743 726.347 427.603C730.817 423.872 736.314 421.664 742.877 421.133L742.944 420.997L745.368 420.944C779.442 420.203 793.425 413.996 800.509 403.983C804.164 398.817 806.292 392.239 807.987 383.766C808.939 379.003 809.698 374.007 810.532 368.514C811.221 363.977 811.961 359.101 812.905 353.736C814.82 342.853 813.989 334.813 811.975 328.482C809.951 322.115 806.65 317.21 803.173 312.612C802.581 311.831 801.97 311.041 801.351 310.243C798.489 306.547 795.478 302.66 793.641 298.476C791.222 292.97 790.737 286.909 793.625 279.478L793.626 279.473C796.45 272.233 795.333 260.984 787.582 251.459C779.951 242.08 765.615 234.136 741.756 234.335C715.243 234.557 695.266 219.138 684.711 201.048C679.434 192.003 676.405 182.127 676.131 172.945C675.856 163.774 678.342 154.989 684.484 148.691L684.638 148.533L684.809 148.392C695.542 139.575 699.468 131.315 699.683 123.903C699.683 115.579 696.313 108.692 689.899 101.076C677.004 85.7648 654.285 72.5306 637.202 63.7267L637.173 63.7122L637.145 63.6972C630.836 60.3183 624.127 61.4027 615.876 63.5118C615.047 63.7236 614.198 63.9479 613.332 64.1769C606.1 66.0886 597.643 68.3243 589.286 66.3133C566.446 61.0779 556.261 42.839 549.514 28.3048C548.606 26.3499 547.773 24.4948 546.989 22.7486C544.724 17.7052 542.868 13.5712 540.803 10.5703C539.464 8.62435 538.354 7.66171 537.458 7.24834C536.746 6.91945 535.82 6.76773 534.248 7.3767C524.237 11.2541 516.463 12.8985 510.066 13.11C503.598 13.3238 498.731 12.0652 494.596 10.4242C492.405 9.55468 490.56 8.68078 488.886 7.88742C484.225 5.67926 480.881 4.09507 475.052 4.9662C458.946 15.3398 444.254 12.2449 432.676 9.47339C432.275 9.37735 431.88 9.28234 431.49 9.18868C425.997 7.8684 421.621 6.81681 417.717 6.94539C414.164 7.06239 411.111 8.16556 408.247 11.5301C406.544 18.1261 404.684 23.1877 402.636 26.9968C400.499 30.9717 398.032 33.814 395.095 35.4957C389.032 38.9672 382.818 36.4745 378.613 34.6996C378.136 34.4982 377.678 34.3019 377.236 34.1121C375.473 33.3564 373.951 32.7038 372.419 32.2442C370.57 31.6895 369.179 31.5788 368.021 31.8542C365.964 32.3433 362.533 34.6657 358.962 45.4163L358.961 45.4199C355.48 55.8638 348.262 64.8896 338.345 70.044C323.483 77.7993 307.695 82.1075 291.416 80.8239C279.77 79.9037 273.562 72.4376 268.63 66.5058C268.395 66.2223 268.162 65.9423 267.932 65.6668C265.289 62.5047 263.028 59.9427 260.352 58.1914C257.842 56.5482 254.861 55.5605 250.642 55.9293L250.307 55.9585L250.087 55.9409C250.035 55.9479 249.896 55.9684 249.645 56.0297C249.192 56.1406 248.575 56.3344 247.775 56.6287C246.174 57.2176 244.139 58.0976 241.727 59.1866C240.506 59.7381 239.195 60.3401 237.818 60.9725C233.862 62.7896 229.362 64.8566 224.875 66.6916C218.858 69.1524 212.453 71.3749 206.911 72.0732C201.629 72.7389 195.309 72.2008 192.062 66.7383L191.846 66.3754L191.71 65.9756C189.404 59.1749 186.71 52.108 183.532 45.83C180.773 40.3781 177.75 35.7281 174.466 32.3735C144.56 41.9884 116.577 56.0229 89.027 71.4852C77.3806 78.0218 65.7196 84.8697 54.0203 91.7402C38.6079 100.791 23.1289 109.881 7.52842 118.35C7.56188 118.943 7.50072 119.598 7.27004 120.28C6.90468 121.361 6.2458 122.138 5.52878 122.682Z"/>
</mask>
<path fill-rule="evenodd" clip-rule="evenodd" d="M491.97 434.779C492.544 443.049 491.964 452.595 491.36 462.548C489.549 492.36 487.517 525.822 515.586 539.565C539.409 543.712 564.238 562.245 589.049 580.766C629.215 610.747 669.335 640.695 705.068 609.52C708.392 606.62 710.733 602.723 711.798 598.443C717.117 577.073 716.08 548.655 715.073 521.019C713.288 472.086 711.594 425.603 745.421 425.028L745.455 424.959C806.199 423.639 809.016 405.14 814.527 368.954C815.221 364.394 815.958 359.554 816.859 354.432C821.258 329.427 812.042 317.504 804.408 307.627C798.068 299.425 792.819 292.634 797.367 280.933C804.175 263.474 791.318 229.905 741.723 230.319C692.127 230.734 666.655 172.723 687.357 151.496C732.598 114.331 673.187 77.7538 639.04 60.1567C630.419 55.5397 621.409 57.9031 612.323 60.2863C604.944 62.2216 597.516 64.1701 590.205 62.4039C566.784 57.0467 557.7 36.803 550.793 21.4114C545.398 9.38874 541.331 0.326466 532.798 3.6317C508.843 12.91 499.503 8.46043 491.202 4.50628C486.018 2.03662 481.24 -0.239766 473.56 1.14253C458.099 11.471 444.186 8.11756 432.254 5.24147C421.221 2.58203 411.881 0.330698 404.575 9.68178C397.37 38.3845 388.154 34.4283 378.915 30.462C370.516 26.8562 362.097 23.2421 355.152 44.1499C351.972 53.6918 345.406 61.8507 336.489 66.4834C322.111 73.9855 307.077 78.0304 291.732 76.8204C281.805 76.036 276.598 69.7904 271.554 63.7407C266.148 57.2572 260.93 50.9986 250.292 51.9286C248.243 51.765 242.804 54.2633 236.075 57.3538C221.47 64.0622 200.789 73.5611 195.512 64.6856C190.846 50.926 184.453 35.6107 175.501 27.832C131.374 41.6472 91.6025 65.0078 51.846 88.3593C36.6608 97.2785 21.4779 106.196 6.05534 114.581C4.86707 115.227 3.67737 115.869 2.48615 116.509C3.05848 117.24 3.412 117.876 3.49984 118.399C3.60119 119.001 3.34876 119.452 2.67054 119.721C2.2684 119.88 1.71655 119.976 1 120.001C1.22479 121.344 1.45147 122.672 1.68002 123.984C22.6115 244.189 59.2237 235.478 92.4387 227.575C116.073 221.951 137.987 216.737 151.308 258.668C160.132 310.443 182.641 313.243 203.796 315.875C221.586 318.088 238.419 320.182 245.35 351.183C247.424 360.483 255.995 366.394 265.499 365.703C299.473 363.283 332.065 422.366 319.968 464.475C311.673 493.273 374.783 494.691 381.246 494.103C411.657 492.456 448.197 463.845 476.126 441.977C480.213 438.777 484.115 435.722 487.786 432.917C489.051 431.95 490.289 431.013 491.497 430.11C491.704 431.614 491.859 433.173 491.97 434.779ZM5.52878 122.682C14.3005 173.368 25.7404 200.333 37.9213 214.143C44.0498 221.091 50.3481 224.687 56.6676 226.362C63.0593 228.056 69.7473 227.859 76.7447 226.774C81.6421 226.015 86.4322 224.875 91.3262 223.71C93.5433 223.183 95.7818 222.65 98.0612 222.145C105.16 220.573 112.501 219.321 119.579 219.984C126.814 220.661 133.723 223.331 139.867 229.403C145.913 235.377 150.994 244.419 155.134 257.452L155.219 257.718L155.266 257.993C159.254 281.393 165.973 293.862 173.461 300.856C180.909 307.812 189.679 309.902 199.285 311.242C200.836 311.458 202.431 311.655 204.054 311.854C212.115 312.847 220.875 313.926 228.429 317.957C238.001 323.066 245.298 332.551 249.268 350.306L249.268 350.308C250.877 357.521 257.538 362.256 265.208 361.698L265.214 361.697C274.955 361.003 284.308 364.74 292.485 371.005C300.663 377.271 307.879 386.213 313.526 396.451C324.769 416.836 330.246 443.239 323.827 465.584L323.826 465.587C322.988 468.498 323.106 470.826 323.758 472.754C324.42 474.713 325.736 476.556 327.753 478.291C331.886 481.848 338.464 484.52 346.045 486.412C361.144 490.181 378.086 490.358 380.882 490.103L380.956 490.097L381.029 490.093C398.048 489.171 417.649 479.108 437.021 466.073C449.95 457.373 462.323 447.684 473.475 438.951C479.009 434.617 484.243 430.518 489.094 426.893L494.547 422.819L495.474 429.563C496.65 438.117 496.226 448.191 495.629 458.424C495.543 459.884 495.455 461.349 495.366 462.817C494.821 471.79 494.269 480.886 494.504 489.683C495.046 510.039 499.754 527.062 516.859 535.713C533.614 538.783 550.511 548.441 567.025 559.795C575.17 565.394 583.338 571.492 591.43 577.532L592.175 578.088C600.536 584.328 608.814 590.492 617.035 596.083C633.567 607.328 649.374 615.905 664.385 618.139C676.97 620.012 689.228 617.461 701.199 607.54C704.787 604.567 707.232 600.447 708.278 595.906C711.11 583.608 711.919 568.806 711.87 552.878C711.841 543.224 711.5 533.269 711.139 523.322L711.06 521.148C710.725 511.951 710.39 502.778 710.296 493.977C710.096 475.123 710.976 457.365 715.632 444.173C717.983 437.513 721.387 431.743 726.347 427.603C730.817 423.872 736.314 421.664 742.877 421.133L742.944 420.997L745.368 420.944C779.442 420.203 793.425 413.996 800.509 403.983C804.164 398.817 806.292 392.239 807.987 383.766C808.939 379.003 809.698 374.007 810.532 368.514C811.221 363.977 811.961 359.101 812.905 353.736C814.82 342.853 813.989 334.813 811.975 328.482C809.951 322.115 806.65 317.21 803.173 312.612C802.581 311.831 801.97 311.041 801.351 310.243C798.489 306.547 795.478 302.66 793.641 298.476C791.222 292.97 790.737 286.909 793.625 279.478L793.626 279.473C796.45 272.233 795.333 260.984 787.582 251.459C779.951 242.08 765.615 234.136 741.756 234.335C715.243 234.557 695.266 219.138 684.711 201.048C679.434 192.003 676.405 182.127 676.131 172.945C675.856 163.774 678.342 154.989 684.484 148.691L684.638 148.533L684.809 148.392C695.542 139.575 699.468 131.315 699.683 123.903C699.683 115.579 696.313 108.692 689.899 101.076C677.004 85.7648 654.285 72.5306 637.202 63.7267L637.173 63.7122L637.145 63.6972C630.836 60.3183 624.127 61.4027 615.876 63.5118C615.047 63.7236 614.198 63.9479 613.332 64.1769C606.1 66.0886 597.643 68.3243 589.286 66.3133C566.446 61.0779 556.261 42.839 549.514 28.3048C548.606 26.3499 547.773 24.4948 546.989 22.7486C544.724 17.7052 542.868 13.5712 540.803 10.5703C539.464 8.62435 538.354 7.66171 537.458 7.24834C536.746 6.91945 535.82 6.76773 534.248 7.3767C524.237 11.2541 516.463 12.8985 510.066 13.11C503.598 13.3238 498.731 12.0652 494.596 10.4242C492.405 9.55468 490.56 8.68078 488.886 7.88742C484.225 5.67926 480.881 4.09507 475.052 4.9662C458.946 15.3398 444.254 12.2449 432.676 9.47339C432.275 9.37735 431.88 9.28234 431.49 9.18868C425.997 7.8684 421.621 6.81681 417.717 6.94539C414.164 7.06239 411.111 8.16556 408.247 11.5301C406.544 18.1261 404.684 23.1877 402.636 26.9968C400.499 30.9717 398.032 33.814 395.095 35.4957C389.032 38.9672 382.818 36.4745 378.613 34.6996C378.136 34.4982 377.678 34.3019 377.236 34.1121C375.473 33.3564 373.951 32.7038 372.419 32.2442C370.57 31.6895 369.179 31.5788 368.021 31.8542C365.964 32.3433 362.533 34.6657 358.962 45.4163L358.961 45.4199C355.48 55.8638 348.262 64.8896 338.345 70.044C323.483 77.7993 307.695 82.1075 291.416 80.8239C279.77 79.9037 273.562 72.4376 268.63 66.5058C268.395 66.2223 268.162 65.9423 267.932 65.6668C265.289 62.5047 263.028 59.9427 260.352 58.1914C257.842 56.5482 254.861 55.5605 250.642 55.9293L250.307 55.9585L250.087 55.9409C250.035 55.9479 249.896 55.9684 249.645 56.0297C249.192 56.1406 248.575 56.3344 247.775 56.6287C246.174 57.2176 244.139 58.0976 241.727 59.1866C240.506 59.7381 239.195 60.3401 237.818 60.9725C233.862 62.7896 229.362 64.8566 224.875 66.6916C218.858 69.1524 212.453 71.3749 206.911 72.0732C201.629 72.7389 195.309 72.2008 192.062 66.7383L191.846 66.3754L191.71 65.9756C189.404 59.1749 186.71 52.108 183.532 45.83C180.773 40.3781 177.75 35.7281 174.466 32.3735C144.56 41.9884 116.577 56.0229 89.027 71.4852C77.3806 78.0218 65.7196 84.8697 54.0203 91.7402C38.6079 100.791 23.1289 109.881 7.52842 118.35C7.56188 118.943 7.50072 119.598 7.27004 120.28C6.90468 121.361 6.2458 122.138 5.52878 122.682Z" fill="url(#paint0_linear_919_9193)"/>
<path fill-rule="evenodd" clip-rule="evenodd" d="M491.97 434.779C492.544 443.049 491.964 452.595 491.36 462.548C489.549 492.36 487.517 525.822 515.586 539.565C539.409 543.712 564.238 562.245 589.049 580.766C629.215 610.747 669.335 640.695 705.068 609.52C708.392 606.62 710.733 602.723 711.798 598.443C717.117 577.073 716.08 548.655 715.073 521.019C713.288 472.086 711.594 425.603 745.421 425.028L745.455 424.959C806.199 423.639 809.016 405.14 814.527 368.954C815.221 364.394 815.958 359.554 816.859 354.432C821.258 329.427 812.042 317.504 804.408 307.627C798.068 299.425 792.819 292.634 797.367 280.933C804.175 263.474 791.318 229.905 741.723 230.319C692.127 230.734 666.655 172.723 687.357 151.496C732.598 114.331 673.187 77.7538 639.04 60.1567C630.419 55.5397 621.409 57.9031 612.323 60.2863C604.944 62.2216 597.516 64.1701 590.205 62.4039C566.784 57.0467 557.7 36.803 550.793 21.4114C545.398 9.38874 541.331 0.326466 532.798 3.6317C508.843 12.91 499.503 8.46043 491.202 4.50628C486.018 2.03662 481.24 -0.239766 473.56 1.14253C458.099 11.471 444.186 8.11756 432.254 5.24147C421.221 2.58203 411.881 0.330698 404.575 9.68178C397.37 38.3845 388.154 34.4283 378.915 30.462C370.516 26.8562 362.097 23.2421 355.152 44.1499C351.972 53.6918 345.406 61.8507 336.489 66.4834C322.111 73.9855 307.077 78.0304 291.732 76.8204C281.805 76.036 276.598 69.7904 271.554 63.7407C266.148 57.2572 260.93 50.9986 250.292 51.9286C248.243 51.765 242.804 54.2633 236.075 57.3538C221.47 64.0622 200.789 73.5611 195.512 64.6856C190.846 50.926 184.453 35.6107 175.501 27.832C131.374 41.6472 91.6025 65.0078 51.846 88.3593C36.6608 97.2785 21.4779 106.196 6.05534 114.581C4.86707 115.227 3.67737 115.869 2.48615 116.509C3.05848 117.24 3.412 117.876 3.49984 118.399C3.60119 119.001 3.34876 119.452 2.67054 119.721C2.2684 119.88 1.71655 119.976 1 120.001C1.22479 121.344 1.45147 122.672 1.68002 123.984C22.6115 244.189 59.2237 235.478 92.4387 227.575C116.073 221.951 137.987 216.737 151.308 258.668C160.132 310.443 182.641 313.243 203.796 315.875C221.586 318.088 238.419 320.182 245.35 351.183C247.424 360.483 255.995 366.394 265.499 365.703C299.473 363.283 332.065 422.366 319.968 464.475C311.673 493.273 374.783 494.691 381.246 494.103C411.657 492.456 448.197 463.845 476.126 441.977C480.213 438.777 484.115 435.722 487.786 432.917C489.051 431.95 490.289 431.013 491.497 430.11C491.704 431.614 491.859 433.173 491.97 434.779ZM5.52878 122.682C14.3005 173.368 25.7404 200.333 37.9213 214.143C44.0498 221.091 50.3481 224.687 56.6676 226.362C63.0593 228.056 69.7473 227.859 76.7447 226.774C81.6421 226.015 86.4322 224.875 91.3262 223.71C93.5433 223.183 95.7818 222.65 98.0612 222.145C105.16 220.573 112.501 219.321 119.579 219.984C126.814 220.661 133.723 223.331 139.867 229.403C145.913 235.377 150.994 244.419 155.134 257.452L155.219 257.718L155.266 257.993C159.254 281.393 165.973 293.862 173.461 300.856C180.909 307.812 189.679 309.902 199.285 311.242C200.836 311.458 202.431 311.655 204.054 311.854C212.115 312.847 220.875 313.926 228.429 317.957C238.001 323.066 245.298 332.551 249.268 350.306L249.268 350.308C250.877 357.521 257.538 362.256 265.208 361.698L265.214 361.697C274.955 361.003 284.308 364.74 292.485 371.005C300.663 377.271 307.879 386.213 313.526 396.451C324.769 416.836 330.246 443.239 323.827 465.584L323.826 465.587C322.988 468.498 323.106 470.826 323.758 472.754C324.42 474.713 325.736 476.556 327.753 478.291C331.886 481.848 338.464 484.52 346.045 486.412C361.144 490.181 378.086 490.358 380.882 490.103L380.956 490.097L381.029 490.093C398.048 489.171 417.649 479.108 437.021 466.073C449.95 457.373 462.323 447.684 473.475 438.951C479.009 434.617 484.243 430.518 489.094 426.893L494.547 422.819L495.474 429.563C496.65 438.117 496.226 448.191 495.629 458.424C495.543 459.884 495.455 461.349 495.366 462.817C494.821 471.79 494.269 480.886 494.504 489.683C495.046 510.039 499.754 527.062 516.859 535.713C533.614 538.783 550.511 548.441 567.025 559.795C575.17 565.394 583.338 571.492 591.43 577.532L592.175 578.088C600.536 584.328 608.814 590.492 617.035 596.083C633.567 607.328 649.374 615.905 664.385 618.139C676.97 620.012 689.228 617.461 701.199 607.54C704.787 604.567 707.232 600.447 708.278 595.906C711.11 583.608 711.919 568.806 711.87 552.878C711.841 543.224 711.5 533.269 711.139 523.322L711.06 521.148C710.725 511.951 710.39 502.778 710.296 493.977C710.096 475.123 710.976 457.365 715.632 444.173C717.983 437.513 721.387 431.743 726.347 427.603C730.817 423.872 736.314 421.664 742.877 421.133L742.944 420.997L745.368 420.944C779.442 420.203 793.425 413.996 800.509 403.983C804.164 398.817 806.292 392.239 807.987 383.766C808.939 379.003 809.698 374.007 810.532 368.514C811.221 363.977 811.961 359.101 812.905 353.736C814.82 342.853 813.989 334.813 811.975 328.482C809.951 322.115 806.65 317.21 803.173 312.612C802.581 311.831 801.97 311.041 801.351 310.243C798.489 306.547 795.478 302.66 793.641 298.476C791.222 292.97 790.737 286.909 793.625 279.478L793.626 279.473C796.45 272.233 795.333 260.984 787.582 251.459C779.951 242.08 765.615 234.136 741.756 234.335C715.243 234.557 695.266 219.138 684.711 201.048C679.434 192.003 676.405 182.127 676.131 172.945C675.856 163.774 678.342 154.989 684.484 148.691L684.638 148.533L684.809 148.392C695.542 139.575 699.468 131.315 699.683 123.903C699.683 115.579 696.313 108.692 689.899 101.076C677.004 85.7648 654.285 72.5306 637.202 63.7267L637.173 63.7122L637.145 63.6972C630.836 60.3183 624.127 61.4027 615.876 63.5118C615.047 63.7236 614.198 63.9479 613.332 64.1769C606.1 66.0886 597.643 68.3243 589.286 66.3133C566.446 61.0779 556.261 42.839 549.514 28.3048C548.606 26.3499 547.773 24.4948 546.989 22.7486C544.724 17.7052 542.868 13.5712 540.803 10.5703C539.464 8.62435 538.354 7.66171 537.458 7.24834C536.746 6.91945 535.82 6.76773 534.248 7.3767C524.237 11.2541 516.463 12.8985 510.066 13.11C503.598 13.3238 498.731 12.0652 494.596 10.4242C492.405 9.55468 490.56 8.68078 488.886 7.88742C484.225 5.67926 480.881 4.09507 475.052 4.9662C458.946 15.3398 444.254 12.2449 432.676 9.47339C432.275 9.37735 431.88 9.28234 431.49 9.18868C425.997 7.8684 421.621 6.81681 417.717 6.94539C414.164 7.06239 411.111 8.16556 408.247 11.5301C406.544 18.1261 404.684 23.1877 402.636 26.9968C400.499 30.9717 398.032 33.814 395.095 35.4957C389.032 38.9672 382.818 36.4745 378.613 34.6996C378.136 34.4982 377.678 34.3019 377.236 34.1121C375.473 33.3564 373.951 32.7038 372.419 32.2442C370.57 31.6895 369.179 31.5788 368.021 31.8542C365.964 32.3433 362.533 34.6657 358.962 45.4163L358.961 45.4199C355.48 55.8638 348.262 64.8896 338.345 70.044C323.483 77.7993 307.695 82.1075 291.416 80.8239C279.77 79.9037 273.562 72.4376 268.63 66.5058C268.395 66.2223 268.162 65.9423 267.932 65.6668C265.289 62.5047 263.028 59.9427 260.352 58.1914C257.842 56.5482 254.861 55.5605 250.642 55.9293L250.307 55.9585L250.087 55.9409C250.035 55.9479 249.896 55.9684 249.645 56.0297C249.192 56.1406 248.575 56.3344 247.775 56.6287C246.174 57.2176 244.139 58.0976 241.727 59.1866C240.506 59.7381 239.195 60.3401 237.818 60.9725C233.862 62.7896 229.362 64.8566 224.875 66.6916C218.858 69.1524 212.453 71.3749 206.911 72.0732C201.629 72.7389 195.309 72.2008 192.062 66.7383L191.846 66.3754L191.71 65.9756C189.404 59.1749 186.71 52.108 183.532 45.83C180.773 40.3781 177.75 35.7281 174.466 32.3735C144.56 41.9884 116.577 56.0229 89.027 71.4852C77.3806 78.0218 65.7196 84.8697 54.0203 91.7402C38.6079 100.791 23.1289 109.881 7.52842 118.35C7.56188 118.943 7.50072 119.598 7.27004 120.28C6.90468 121.361 6.2458 122.138 5.52878 122.682Z" stroke="url(#paint1_linear_919_9193)" stroke-width="1.34569" stroke-linejoin="round" mask="url(#path-1-outside-1_919_9193)"/>
<defs>
<linearGradient id="paint0_linear_919_9193" x1="683.433" y1="622.724" x2="683.434" y2="0.723661" gradientUnits="userSpaceOnUse">
<stop offset="0.0104167" stop-color="#FFF0DA"/>
<stop offset="0.0416667" stop-color="#94641E"/>
<stop offset="0.828125" stop-color="#FFF2DB"/>
<stop offset="0.9375" stop-color="#EAC885"/>
<stop offset="0.979167" stop-color="#FBF5D1"/>
<stop offset="0.9999" stop-color="#BD9A4B"/>
<stop offset="1" stop-color="#ECD8A3"/>
</linearGradient>
<linearGradient id="paint1_linear_919_9193" x1="409.5" y1="0.723633" x2="409.5" y2="622.724" gradientUnits="userSpaceOnUse">
<stop stop-color="#FCF6D1"/>
<stop offset="0.104167" stop-color="#BD9457"/>
<stop offset="0.25" stop-color="#E3CA89"/>
<stop offset="0.697917" stop-color="#FEE8C8"/>
<stop offset="0.854167" stop-color="#4D3A1A"/>
<stop offset="1" stop-color="#FCF0D1"/>
</linearGradient>
</defs>
</svg>
