<svg width="2124" height="1926" viewBox="0 0 2124 1926" fill="none" xmlns="http://www.w3.org/2000/svg">
<path d="M1854.07 491.252C1789.94 470.954 1669.59 515.173 1669.59 515.173L1421.67 597.444C1418.53 598.488 1415.14 597.02 1413.7 594.017C1375.23 515.108 1294.29 460.739 1200.63 460.739C1106.97 460.739 1024.96 515.793 986.781 595.486C986.716 595.616 986.553 595.649 986.422 595.584L550.494 279.913C550.494 279.913 550.298 279.88 550.265 279.913C441.854 388.389 432.847 490.175 522.461 607.397C522.591 607.593 522.428 607.854 522.2 607.756L428.833 577.048C428.833 577.048 428.637 577.048 428.572 577.145C331.746 736.955 404.096 843.245 567.561 923.101C567.822 923.232 567.692 923.591 567.431 923.558L440.353 903.162C440.353 903.162 440.125 903.227 440.092 903.358C396.884 1116.1 576.568 1211.23 777.041 1209.76C777.171 1209.76 777.302 1209.89 777.269 1210.02C732.985 1492.47 966.842 1620.82 1105.96 1620.85C1106.09 1620.85 1106.16 1620.76 1106.16 1620.63L1106.06 1523.8C1106.06 1523.64 1106.26 1523.51 1106.39 1523.6C1183.24 1559.89 1235.13 1519.79 1280.42 1473.77C1280.52 1473.67 1280.52 1473.54 1280.42 1473.48L1182.75 1367.65C1182.75 1367.65 1182.68 1367.29 1182.88 1367.25C1365.14 1339.35 1504.75 1181.89 1504.75 991.829C1504.75 929.661 1489.77 870.364 1463.31 818.247C1444.84 781.893 1436.32 741.492 1437.56 700.731C1437.56 699.72 1437.59 698.741 1437.59 697.794C1437.59 688.787 1442.55 680.531 1450.51 676.321C1450.51 676.321 1562.61 606.451 1639.66 571.728C1716.71 537.005 1765.53 513.117 1853.68 503.718C1861.15 503.131 1860.11 492.916 1854.07 491.285V491.252Z" fill="#E0295D"/>
</svg>
